# MagicaVoxel @ Ephtracy

# group
o 

# material
mtllib Target.mtl
usemtl palette

# normals
vn -1 0 0
vn 1 0 0
vn 0 0 1
vn 0 0 -1
vn 0 -1 0
vn 0 1 0

# texcoords
vt 0.00195313 0.5
vt 0.138672 0.5
vt 0.755859 0.5

# verts
v -2 1.6 0.1
v -2 1.6 -0.1
v -2 2.4 0.1
v -2 2.4 -0.1
v -1.9 1.2 0.1
v -1.9 1.2 -0.1
v -1.9 1.6 0.1
v -1.9 1.6 -0.1
v -1.9 2.4 0.1
v -1.9 2.4 -0.1
v -1.9 2.8 0.1
v -1.9 2.8 -0.1
v -1.8 1 0.1
v -1.8 1 -0.1
v -1.8 1.2 0.1
v -1.8 1.2 -0.1
v -1.8 2.8 0.1
v -1.8 2.8 -0.1
v -1.8 3 0.1
v -1.8 3 -0.1
v -1.7 0.9 0.1
v -1.7 0.9 -0.1
v -1.7 1 0.1
v -1.7 1 -0.1
v -1.7 3 0.1
v -1.7 3 -0.1
v -1.7 3.1 0.1
v -1.7 3.1 -0.1
v -1.6 0.7 0.1
v -1.6 0.7 -0.1
v -1.6 0.9 0.1
v -1.6 0.9 -0.1
v -1.6 3.1 0.1
v -1.6 3.1 -0.1
v -1.6 3.3 0.1
v -1.6 3.3 -0.1
v -1.5 0.6 0.1
v -1.5 0.6 -0.1
v -1.5 0.7 0.1
v -1.5 0.7 -0.1
v -1.5 3.3 0.1
v -1.5 3.3 -0.1
v -1.5 3.4 0.1
v -1.5 3.4 -0.1
v -1.4 0.5 0.1
v -1.4 0.5 -0.1
v -1.4 0.6 0.1
v -1.4 0.6 -0.1
v -1.4 3.4 0.1
v -1.4 3.4 -0.1
v -1.4 3.5 0.1
v -1.4 3.5 -0.1
v -1.3 0.4 0.1
v -1.3 0.4 -0.1
v -1.3 0.5 0.1
v -1.3 0.5 -0.1
v -1.3 3.5 0.1
v -1.3 3.5 -0.1
v -1.3 3.6 0.1
v -1.3 3.6 -0.1
v -1.1 0.3 0.1
v -1.1 0.3 -0.1
v -1.1 0.4 0.1
v -1.1 0.4 -0.1
v -1.1 3.6 0.1
v -1.1 3.6 -0.1
v -1.1 3.7 0.1
v -1.1 3.7 -0.1
v -1 0.2 0.1
v -1 0.2 -0.1
v -1 0.3 0.1
v -1 0.3 -0.1
v -1 3.7 0.1
v -1 3.7 -0.1
v -1 3.8 0.1
v -1 3.8 -0.1
v -0.8 0.1 0.1
v -0.8 0.1 -0.1
v -0.8 0.2 0.1
v -0.8 0.2 -0.1
v -0.8 3.8 0.1
v -0.8 3.8 -0.1
v -0.8 3.9 0.1
v -0.8 3.9 -0.1
v -0.4 0 0.1
v -0.4 0 -0.1
v -0.4 0.1 0.1
v -0.4 0.1 -0.1
v -0.4 3.9 0.1
v -0.4 3.9 -0.1
v -0.4 4 0.1
v -0.4 4 -0.1
v 0.4 0 0.1
v 0.4 0 -0.1
v 0.4 0.1 0.1
v 0.4 0.1 -0.1
v 0.4 3.9 0.1
v 0.4 3.9 -0.1
v 0.4 4 0.1
v 0.4 4 -0.1
v 0.8 0.1 0.1
v 0.8 0.1 -0.1
v 0.8 0.2 0.1
v 0.8 0.2 -0.1
v 0.8 3.8 0.1
v 0.8 3.8 -0.1
v 0.8 3.9 0.1
v 0.8 3.9 -0.1
v 1 0.2 0.1
v 1 0.2 -0.1
v 1 0.3 0.1
v 1 0.3 -0.1
v 1 3.7 0.1
v 1 3.7 -0.1
v 1 3.8 0.1
v 1 3.8 -0.1
v 1.1 0.3 0.1
v 1.1 0.3 -0.1
v 1.1 0.4 0.1
v 1.1 0.4 -0.1
v 1.1 3.6 0.1
v 1.1 3.6 -0.1
v 1.1 3.7 0.1
v 1.1 3.7 -0.1
v 1.3 0.4 0.1
v 1.3 0.4 -0.1
v 1.3 0.5 0.1
v 1.3 0.5 -0.1
v 1.3 3.5 0.1
v 1.3 3.5 -0.1
v 1.3 3.6 0.1
v 1.3 3.6 -0.1
v 1.4 0.5 0.1
v 1.4 0.5 -0.1
v 1.4 0.6 0.1
v 1.4 0.6 -0.1
v 1.4 3.4 0.1
v 1.4 3.4 -0.1
v 1.4 3.5 0.1
v 1.4 3.5 -0.1
v 1.5 0.6 0.1
v 1.5 0.6 -0.1
v 1.5 0.7 0.1
v 1.5 0.7 -0.1
v 1.5 3.3 0.1
v 1.5 3.3 -0.1
v 1.5 3.4 0.1
v 1.5 3.4 -0.1
v 1.6 0.7 0.1
v 1.6 0.7 -0.1
v 1.6 0.9 0.1
v 1.6 0.9 -0.1
v 1.6 3.1 0.1
v 1.6 3.1 -0.1
v 1.6 3.3 0.1
v 1.6 3.3 -0.1
v 1.7 0.9 0.1
v 1.7 0.9 -0.1
v 1.7 1 0.1
v 1.7 1 -0.1
v 1.7 3 0.1
v 1.7 3 -0.1
v 1.7 3.1 0.1
v 1.7 3.1 -0.1
v 1.8 1 0.1
v 1.8 1 -0.1
v 1.8 1.2 0.1
v 1.8 1.2 -0.1
v 1.8 2.8 0.1
v 1.8 2.8 -0.1
v 1.8 3 0.1
v 1.8 3 -0.1
v 1.9 1.2 0.1
v 1.9 1.2 -0.1
v 1.9 1.6 0.1
v 1.9 1.6 -0.1
v 1.9 2.4 0.1
v 1.9 2.4 -0.1
v 1.9 2.8 0.1
v 1.9 2.8 -0.1
v 2 1.6 0.1
v 2 1.6 -0.1
v 2 2.4 0.1
v 2 2.4 -0.1
v -2 1.6 0.1
v -2 2.4 0.1
v -1.9 1.2 0.1
v -1.9 1.6 0.1
v -1.9 2.4 0.1
v -1.9 2.8 0.1
v -1.8 1 0.1
v -1.8 1.2 0.1
v -1.8 2.8 0.1
v -1.8 3 0.1
v -1.7 0.9 0.1
v -1.7 1 0.1
v -1.7 3 0.1
v -1.7 3.1 0.1
v -1.6 0.7 0.1
v -1.6 0.9 0.1
v -1.6 3.1 0.1
v -1.6 3.3 0.1
v -1.5 0.6 0.1
v -1.5 0.7 0.1
v -1.5 3.3 0.1
v -1.5 3.4 0.1
v -1.4 0.5 0.1
v -1.4 0.6 0.1
v -1.4 1.8 0.1
v -1.4 2.3 0.1
v -1.4 3.4 0.1
v -1.4 3.5 0.1
v -1.3 0.4 0.1
v -1.3 0.5 0.1
v -1.3 1.5 0.1
v -1.3 1.8 0.1
v -1.3 2.3 0.1
v -1.3 2.6 0.1
v -1.3 3.5 0.1
v -1.3 3.6 0.1
v -1.2 1.3 0.1
v -1.2 1.5 0.1
v -1.2 2.6 0.1
v -1.2 2.7 0.1
v -1.1 0.3 0.1
v -1.1 0.4 0.1
v -1.1 1.1 0.1
v -1.1 1.3 0.1
v -1.1 2.7 0.1
v -1.1 3 0.1
v -1.1 3.6 0.1
v -1.1 3.7 0.1
v -1 0.2 0.1
v -1 0.3 0.1
v -1 3.7 0.1
v -1 3.8 0.1
v -0.9 0.9 0.1
v -0.9 1.1 0.1
v -0.9 3 0.1
v -0.9 3.2 0.1
v -0.8 0.1 0.1
v -0.8 0.2 0.1
v -0.8 3.8 0.1
v -0.8 3.9 0.1
v -0.7 0.8 0.1
v -0.7 0.9 0.1
v -0.7 1.9 0.1
v -0.7 2.2 0.1
v -0.7 3.2 0.1
v -0.7 3.3 0.1
v -0.6 1.7 0.1
v -0.6 1.9 0.1
v -0.6 2.2 0.1
v -0.6 2.4 0.1
v -0.5 0.7 0.1
v -0.5 0.8 0.1
v -0.5 1.6 0.1
v -0.5 1.7 0.1
v -0.5 2.4 0.1
v -0.5 2.5 0.1
v -0.5 3.3 0.1
v -0.5 3.4 0.1
v -0.4 0 0.1
v -0.4 0.1 0.1
v -0.4 1.5 0.1
v -0.4 1.6 0.1
v -0.4 2.5 0.1
v -0.4 2.6 0.1
v -0.4 3.9 0.1
v -0.4 4 0.1
v -0.3 1.4 0.1
v -0.3 1.5 0.1
v -0.3 2.6 0.1
v -0.3 2.7 0.1
v -0.2 0.6 0.1
v -0.2 0.7 0.1
v -0.2 3.4 0.1
v -0.2 3.5 0.1
v -0.0999999 1.3 0.1
v -0.0999999 1.4 0.1
v -0.0999999 2.7 0.1
v -0.0999999 2.8 0.1
v 0.2 1.3 0.1
v 0.2 1.4 0.1
v 0.2 2.7 0.1
v 0.2 2.8 0.1
v 0.3 0.6 0.1
v 0.3 0.7 0.1
v 0.3 3.4 0.1
v 0.3 3.5 0.1
v 0.4 0 0.1
v 0.4 0.1 0.1
v 0.4 1.4 0.1
v 0.4 1.5 0.1
v 0.4 2.6 0.1
v 0.4 2.7 0.1
v 0.4 3.9 0.1
v 0.4 4 0.1
v 0.5 1.5 0.1
v 0.5 1.6 0.1
v 0.5 2.5 0.1
v 0.5 2.6 0.1
v 0.6 0.7 0.1
v 0.6 0.8 0.1
v 0.6 1.6 0.1
v 0.6 1.7 0.1
v 0.6 2.4 0.1
v 0.6 2.5 0.1
v 0.6 3.3 0.1
v 0.6 3.4 0.1
v 0.7 0.8 0.1
v 0.7 0.9 0.1
v 0.7 1.7 0.1
v 0.7 1.9 0.1
v 0.7 2.2 0.1
v 0.7 2.4 0.1
v 0.7 3.2 0.1
v 0.7 3.3 0.1
v 0.8 0.1 0.1
v 0.8 0.2 0.1
v 0.8 1.9 0.1
v 0.8 2.2 0.1
v 0.8 3.8 0.1
v 0.8 3.9 0.1
v 1 0.2 0.1
v 1 0.3 0.1
v 1 0.9 0.1
v 1 1.1 0.1
v 1 3 0.1
v 1 3.2 0.1
v 1 3.7 0.1
v 1 3.8 0.1
v 1.1 0.3 0.1
v 1.1 0.4 0.1
v 1.1 3.6 0.1
v 1.1 3.7 0.1
v 1.2 1.1 0.1
v 1.2 1.3 0.1
v 1.2 2.7 0.1
v 1.2 3 0.1
v 1.3 0.4 0.1
v 1.3 0.5 0.1
v 1.3 1.3 0.1
v 1.3 1.5 0.1
v 1.3 2.6 0.1
v 1.3 2.7 0.1
v 1.3 3.5 0.1
v 1.3 3.6 0.1
v 1.4 0.5 0.1
v 1.4 0.6 0.1
v 1.4 1.5 0.1
v 1.4 1.8 0.1
v 1.4 2.3 0.1
v 1.4 2.6 0.1
v 1.4 3.4 0.1
v 1.4 3.5 0.1
v 1.5 0.6 0.1
v 1.5 0.7 0.1
v 1.5 1.8 0.1
v 1.5 2.3 0.1
v 1.5 3.3 0.1
v 1.5 3.4 0.1
v 1.6 0.7 0.1
v 1.6 0.9 0.1
v 1.6 3.1 0.1
v 1.6 3.3 0.1
v 1.7 0.9 0.1
v 1.7 1 0.1
v 1.7 3 0.1
v 1.7 3.1 0.1
v 1.8 1 0.1
v 1.8 1.2 0.1
v 1.8 2.8 0.1
v 1.8 3 0.1
v 1.9 1.2 0.1
v 1.9 1.6 0.1
v 1.9 2.4 0.1
v 1.9 2.8 0.1
v 2 1.6 0.1
v 2 2.4 0.1
v -2 1.6 -0.1
v -2 2.4 -0.1
v -1.9 1.2 -0.1
v -1.9 1.6 -0.1
v -1.9 2.4 -0.1
v -1.9 2.8 -0.1
v -1.8 1 -0.1
v -1.8 1.2 -0.1
v -1.8 2.8 -0.1
v -1.8 3 -0.1
v -1.7 0.9 -0.1
v -1.7 1 -0.1
v -1.7 3 -0.1
v -1.7 3.1 -0.1
v -1.6 0.7 -0.1
v -1.6 0.9 -0.1
v -1.6 3.1 -0.1
v -1.6 3.3 -0.1
v -1.5 0.6 -0.1
v -1.5 0.7 -0.1
v -1.5 3.3 -0.1
v -1.5 3.4 -0.1
v -1.4 0.5 -0.1
v -1.4 0.6 -0.1
v -1.4 3.4 -0.1
v -1.4 3.5 -0.1
v -1.3 0.4 -0.1
v -1.3 0.5 -0.1
v -1.3 3.5 -0.1
v -1.3 3.6 -0.1
v -1.1 0.3 -0.1
v -1.1 0.4 -0.1
v -1.1 3.6 -0.1
v -1.1 3.7 -0.1
v -1 0.2 -0.1
v -1 0.3 -0.1
v -1 3.7 -0.1
v -1 3.8 -0.1
v -0.8 0.1 -0.1
v -0.8 0.2 -0.1
v -0.8 3.8 -0.1
v -0.8 3.9 -0.1
v -0.4 0 -0.1
v -0.4 0.1 -0.1
v -0.4 3.9 -0.1
v -0.4 4 -0.1
v 0.4 0 -0.1
v 0.4 0.1 -0.1
v 0.4 3.9 -0.1
v 0.4 4 -0.1
v 0.8 0.1 -0.1
v 0.8 0.2 -0.1
v 0.8 3.8 -0.1
v 0.8 3.9 -0.1
v 1 0.2 -0.1
v 1 0.3 -0.1
v 1 3.7 -0.1
v 1 3.8 -0.1
v 1.1 0.3 -0.1
v 1.1 0.4 -0.1
v 1.1 3.6 -0.1
v 1.1 3.7 -0.1
v 1.3 0.4 -0.1
v 1.3 0.5 -0.1
v 1.3 3.5 -0.1
v 1.3 3.6 -0.1
v 1.4 0.5 -0.1
v 1.4 0.6 -0.1
v 1.4 3.4 -0.1
v 1.4 3.5 -0.1
v 1.5 0.6 -0.1
v 1.5 0.7 -0.1
v 1.5 3.3 -0.1
v 1.5 3.4 -0.1
v 1.6 0.7 -0.1
v 1.6 0.9 -0.1
v 1.6 3.1 -0.1
v 1.6 3.3 -0.1
v 1.7 0.9 -0.1
v 1.7 1 -0.1
v 1.7 3 -0.1
v 1.7 3.1 -0.1
v 1.8 1 -0.1
v 1.8 1.2 -0.1
v 1.8 2.8 -0.1
v 1.8 3 -0.1
v 1.9 1.2 -0.1
v 1.9 1.6 -0.1
v 1.9 2.4 -0.1
v 1.9 2.8 -0.1
v 2 1.6 -0.1
v 2 2.4 -0.1
v -0.4 0 0.1
v 0.4 0 0.1
v -0.4 0 -0.1
v 0.4 0 -0.1
v -0.8 0.1 0.1
v -0.4 0.1 0.1
v 0.4 0.1 0.1
v 0.8 0.1 0.1
v -0.8 0.1 -0.1
v -0.4 0.1 -0.1
v 0.4 0.1 -0.1
v 0.8 0.1 -0.1
v -1 0.2 0.1
v -0.8 0.2 0.1
v 0.8 0.2 0.1
v 1 0.2 0.1
v -1 0.2 -0.1
v -0.8 0.2 -0.1
v 0.8 0.2 -0.1
v 1 0.2 -0.1
v -1.1 0.3 0.1
v -1 0.3 0.1
v 1 0.3 0.1
v 1.1 0.3 0.1
v -1.1 0.3 -0.1
v -1 0.3 -0.1
v 1 0.3 -0.1
v 1.1 0.3 -0.1
v -1.3 0.4 0.1
v -1.1 0.4 0.1
v 1.1 0.4 0.1
v 1.3 0.4 0.1
v -1.3 0.4 -0.1
v -1.1 0.4 -0.1
v 1.1 0.4 -0.1
v 1.3 0.4 -0.1
v -1.4 0.5 0.1
v -1.3 0.5 0.1
v 1.3 0.5 0.1
v 1.4 0.5 0.1
v -1.4 0.5 -0.1
v -1.3 0.5 -0.1
v 1.3 0.5 -0.1
v 1.4 0.5 -0.1
v -1.5 0.6 0.1
v -1.4 0.6 0.1
v 1.4 0.6 0.1
v 1.5 0.6 0.1
v -1.5 0.6 -0.1
v -1.4 0.6 -0.1
v 1.4 0.6 -0.1
v 1.5 0.6 -0.1
v -1.6 0.7 0.1
v -1.5 0.7 0.1
v 1.5 0.7 0.1
v 1.6 0.7 0.1
v -1.6 0.7 -0.1
v -1.5 0.7 -0.1
v 1.5 0.7 -0.1
v 1.6 0.7 -0.1
v -1.7 0.9 0.1
v -1.6 0.9 0.1
v 1.6 0.9 0.1
v 1.7 0.9 0.1
v -1.7 0.9 -0.1
v -1.6 0.9 -0.1
v 1.6 0.9 -0.1
v 1.7 0.9 -0.1
v -1.8 1 0.1
v -1.7 1 0.1
v 1.7 1 0.1
v 1.8 1 0.1
v -1.8 1 -0.1
v -1.7 1 -0.1
v 1.7 1 -0.1
v 1.8 1 -0.1
v -1.9 1.2 0.1
v -1.8 1.2 0.1
v 1.8 1.2 0.1
v 1.9 1.2 0.1
v -1.9 1.2 -0.1
v -1.8 1.2 -0.1
v 1.8 1.2 -0.1
v 1.9 1.2 -0.1
v -2 1.6 0.1
v -1.9 1.6 0.1
v 1.9 1.6 0.1
v 2 1.6 0.1
v -2 1.6 -0.1
v -1.9 1.6 -0.1
v 1.9 1.6 -0.1
v 2 1.6 -0.1
v -2 2.4 0.1
v -1.9 2.4 0.1
v 1.9 2.4 0.1
v 2 2.4 0.1
v -2 2.4 -0.1
v -1.9 2.4 -0.1
v 1.9 2.4 -0.1
v 2 2.4 -0.1
v -1.9 2.8 0.1
v -1.8 2.8 0.1
v 1.8 2.8 0.1
v 1.9 2.8 0.1
v -1.9 2.8 -0.1
v -1.8 2.8 -0.1
v 1.8 2.8 -0.1
v 1.9 2.8 -0.1
v -1.8 3 0.1
v -1.7 3 0.1
v 1.7 3 0.1
v 1.8 3 0.1
v -1.8 3 -0.1
v -1.7 3 -0.1
v 1.7 3 -0.1
v 1.8 3 -0.1
v -1.7 3.1 0.1
v -1.6 3.1 0.1
v 1.6 3.1 0.1
v 1.7 3.1 0.1
v -1.7 3.1 -0.1
v -1.6 3.1 -0.1
v 1.6 3.1 -0.1
v 1.7 3.1 -0.1
v -1.6 3.3 0.1
v -1.5 3.3 0.1
v 1.5 3.3 0.1
v 1.6 3.3 0.1
v -1.6 3.3 -0.1
v -1.5 3.3 -0.1
v 1.5 3.3 -0.1
v 1.6 3.3 -0.1
v -1.5 3.4 0.1
v -1.4 3.4 0.1
v 1.4 3.4 0.1
v 1.5 3.4 0.1
v -1.5 3.4 -0.1
v -1.4 3.4 -0.1
v 1.4 3.4 -0.1
v 1.5 3.4 -0.1
v -1.4 3.5 0.1
v -1.3 3.5 0.1
v 1.3 3.5 0.1
v 1.4 3.5 0.1
v -1.4 3.5 -0.1
v -1.3 3.5 -0.1
v 1.3 3.5 -0.1
v 1.4 3.5 -0.1
v -1.3 3.6 0.1
v -1.1 3.6 0.1
v 1.1 3.6 0.1
v 1.3 3.6 0.1
v -1.3 3.6 -0.1
v -1.1 3.6 -0.1
v 1.1 3.6 -0.1
v 1.3 3.6 -0.1
v -1.1 3.7 0.1
v -1 3.7 0.1
v 1 3.7 0.1
v 1.1 3.7 0.1
v -1.1 3.7 -0.1
v -1 3.7 -0.1
v 1 3.7 -0.1
v 1.1 3.7 -0.1
v -1 3.8 0.1
v -0.8 3.8 0.1
v 0.8 3.8 0.1
v 1 3.8 0.1
v -1 3.8 -0.1
v -0.8 3.8 -0.1
v 0.8 3.8 -0.1
v 1 3.8 -0.1
v -0.8 3.9 0.1
v -0.4 3.9 0.1
v 0.4 3.9 0.1
v 0.8 3.9 0.1
v -0.8 3.9 -0.1
v -0.4 3.9 -0.1
v 0.4 3.9 -0.1
v 0.8 3.9 -0.1
v -0.4 4 0.1
v 0.4 4 0.1
v -0.4 4 -0.1
v 0.4 4 -0.1

# faces
f 3/2/1 2/2/1 1/2/1
f 4/2/1 2/2/1 3/2/1
f 7/2/1 6/2/1 5/2/1
f 8/2/1 6/2/1 7/2/1
f 11/2/1 10/2/1 9/2/1
f 12/2/1 10/2/1 11/2/1
f 15/2/1 14/2/1 13/2/1
f 16/2/1 14/2/1 15/2/1
f 19/2/1 18/2/1 17/2/1
f 20/2/1 18/2/1 19/2/1
f 23/2/1 22/2/1 21/2/1
f 24/2/1 22/2/1 23/2/1
f 27/2/1 26/2/1 25/2/1
f 28/2/1 26/2/1 27/2/1
f 31/2/1 30/2/1 29/2/1
f 32/2/1 30/2/1 31/2/1
f 35/2/1 34/2/1 33/2/1
f 36/2/1 34/2/1 35/2/1
f 39/2/1 38/2/1 37/2/1
f 40/2/1 38/2/1 39/2/1
f 43/2/1 42/2/1 41/2/1
f 44/2/1 42/2/1 43/2/1
f 47/2/1 46/2/1 45/2/1
f 48/2/1 46/2/1 47/2/1
f 51/2/1 50/2/1 49/2/1
f 52/2/1 50/2/1 51/2/1
f 55/2/1 54/2/1 53/2/1
f 56/2/1 54/2/1 55/2/1
f 59/2/1 58/2/1 57/2/1
f 60/2/1 58/2/1 59/2/1
f 63/2/1 62/2/1 61/2/1
f 64/2/1 62/2/1 63/2/1
f 67/2/1 66/2/1 65/2/1
f 68/2/1 66/2/1 67/2/1
f 71/2/1 70/2/1 69/2/1
f 72/2/1 70/2/1 71/2/1
f 75/2/1 74/2/1 73/2/1
f 76/2/1 74/2/1 75/2/1
f 79/2/1 78/2/1 77/2/1
f 80/2/1 78/2/1 79/2/1
f 83/2/1 82/2/1 81/2/1
f 84/2/1 82/2/1 83/2/1
f 87/2/1 86/2/1 85/2/1
f 88/2/1 86/2/1 87/2/1
f 91/2/1 90/2/1 89/2/1
f 92/2/1 90/2/1 91/2/1
f 93/2/2 94/2/2 95/2/2
f 95/2/2 94/2/2 96/2/2
f 97/2/2 98/2/2 99/2/2
f 99/2/2 98/2/2 100/2/2
f 101/2/2 102/2/2 103/2/2
f 103/2/2 102/2/2 104/2/2
f 105/2/2 106/2/2 107/2/2
f 107/2/2 106/2/2 108/2/2
f 109/2/2 110/2/2 111/2/2
f 111/2/2 110/2/2 112/2/2
f 113/2/2 114/2/2 115/2/2
f 115/2/2 114/2/2 116/2/2
f 117/2/2 118/2/2 119/2/2
f 119/2/2 118/2/2 120/2/2
f 121/2/2 122/2/2 123/2/2
f 123/2/2 122/2/2 124/2/2
f 125/2/2 126/2/2 127/2/2
f 127/2/2 126/2/2 128/2/2
f 129/2/2 130/2/2 131/2/2
f 131/2/2 130/2/2 132/2/2
f 133/2/2 134/2/2 135/2/2
f 135/2/2 134/2/2 136/2/2
f 137/2/2 138/2/2 139/2/2
f 139/2/2 138/2/2 140/2/2
f 141/2/2 142/2/2 143/2/2
f 143/2/2 142/2/2 144/2/2
f 145/2/2 146/2/2 147/2/2
f 147/2/2 146/2/2 148/2/2
f 149/2/2 150/2/2 151/2/2
f 151/2/2 150/2/2 152/2/2
f 153/2/2 154/2/2 155/2/2
f 155/2/2 154/2/2 156/2/2
f 157/2/2 158/2/2 159/2/2
f 159/2/2 158/2/2 160/2/2
f 161/2/2 162/2/2 163/2/2
f 163/2/2 162/2/2 164/2/2
f 165/2/2 166/2/2 167/2/2
f 167/2/2 166/2/2 168/2/2
f 169/2/2 170/2/2 171/2/2
f 171/2/2 170/2/2 172/2/2
f 173/2/2 174/2/2 175/2/2
f 175/2/2 174/2/2 176/2/2
f 177/2/2 178/2/2 179/2/2
f 179/2/2 178/2/2 180/2/2
f 181/2/2 182/2/2 183/2/2
f 183/2/2 182/2/2 184/2/2
f 188/2/3 186/2/3 185/2/3
f 189/2/3 186/2/3 188/2/3
f 192/2/3 188/2/3 187/2/3
f 192/2/3 190/2/3 189/2/3
f 192/2/3 189/2/3 188/2/3
f 193/2/3 190/2/3 192/2/3
f 196/2/3 192/2/3 191/2/3
f 196/2/3 194/2/3 193/2/3
f 196/2/3 193/2/3 192/2/3
f 197/2/3 194/2/3 196/2/3
f 200/2/3 196/2/3 195/2/3
f 200/2/3 198/2/3 197/2/3
f 200/2/3 197/2/3 196/2/3
f 201/2/3 198/2/3 200/2/3
f 204/2/3 200/2/3 199/2/3
f 204/2/3 202/2/3 201/2/3
f 204/2/3 201/2/3 200/2/3
f 205/2/3 202/2/3 204/2/3
f 208/2/3 204/2/3 203/2/3
f 208/2/3 206/2/3 205/2/3
f 208/2/3 205/2/3 204/2/3
f 209/2/3 206/2/3 208/2/3
f 210/2/3 206/2/3 209/2/3
f 211/2/3 206/2/3 210/2/3
f 214/2/3 208/2/3 207/2/3
f 214/2/3 209/2/3 208/2/3
f 215/2/3 209/2/3 214/2/3
f 216/1/3 210/1/3 209/1/3
f 216/2/3 209/2/3 215/2/3
f 217/2/3 212/2/3 211/2/3
f 217/1/3 210/1/3 216/1/3
f 217/2/3 211/2/3 210/2/3
f 218/2/3 212/2/3 217/2/3
f 219/2/3 212/2/3 218/2/3
f 221/2/3 214/2/3 213/2/3
f 221/2/3 215/2/3 214/2/3
f 222/1/3 216/1/3 215/1/3
f 222/2/3 215/2/3 221/2/3
f 222/1/3 217/1/3 216/1/3
f 222/1/3 218/1/3 217/1/3
f 223/2/3 220/2/3 219/2/3
f 223/1/3 218/1/3 222/1/3
f 223/2/3 219/2/3 218/2/3
f 224/2/3 220/2/3 223/2/3
f 226/2/3 221/2/3 213/2/3
f 227/2/3 221/2/3 226/2/3
f 228/1/3 222/1/3 221/1/3
f 228/2/3 221/2/3 227/2/3
f 228/1/3 223/1/3 222/1/3
f 228/1/3 224/1/3 223/1/3
f 229/2/3 220/2/3 224/2/3
f 229/1/3 224/1/3 228/1/3
f 230/2/3 220/2/3 229/2/3
f 231/2/3 220/2/3 230/2/3
f 234/2/3 227/2/3 226/2/3
f 234/2/3 226/2/3 225/2/3
f 235/2/3 232/2/3 231/2/3
f 235/2/3 231/2/3 230/2/3
f 237/2/3 234/2/3 233/2/3
f 237/2/3 227/2/3 234/2/3
f 238/1/3 228/1/3 227/1/3
f 238/2/3 227/2/3 237/2/3
f 238/1/3 229/1/3 228/1/3
f 238/1/3 230/1/3 229/1/3
f 239/2/3 236/2/3 235/2/3
f 239/1/3 230/1/3 238/1/3
f 239/2/3 235/2/3 230/2/3
f 240/2/3 236/2/3 239/2/3
f 242/2/3 237/2/3 233/2/3
f 243/2/3 236/2/3 240/2/3
f 245/2/3 242/2/3 241/2/3
f 245/2/3 237/2/3 242/2/3
f 246/1/3 238/1/3 237/1/3
f 246/2/3 237/2/3 245/2/3
f 246/1/3 239/1/3 238/1/3
f 246/1/3 240/1/3 239/1/3
f 247/1/3 240/1/3 246/1/3
f 248/1/3 240/1/3 247/1/3
f 249/2/3 244/2/3 243/2/3
f 249/1/3 240/1/3 248/1/3
f 249/2/3 243/2/3 240/2/3
f 250/2/3 244/2/3 249/2/3
f 251/1/3 247/1/3 246/1/3
f 251/1/3 246/1/3 245/1/3
f 252/3/3 248/3/3 247/3/3
f 252/1/3 247/1/3 251/1/3
f 253/1/3 250/1/3 249/1/3
f 253/3/3 248/3/3 252/3/3
f 253/1/3 249/1/3 248/1/3
f 254/1/3 250/1/3 253/1/3
f 255/2/3 245/2/3 241/2/3
f 256/1/3 251/1/3 245/1/3
f 256/2/3 245/2/3 255/2/3
f 257/1/3 251/1/3 256/1/3
f 258/3/3 252/3/3 251/3/3
f 258/1/3 251/1/3 257/1/3
f 258/3/3 253/3/3 252/3/3
f 258/3/3 254/3/3 253/3/3
f 259/1/3 250/1/3 254/1/3
f 259/3/3 254/3/3 258/3/3
f 260/1/3 250/1/3 259/1/3
f 261/2/3 244/2/3 250/2/3
f 261/1/3 250/1/3 260/1/3
f 262/2/3 244/2/3 261/2/3
f 264/2/3 255/2/3 241/2/3
f 265/1/3 257/1/3 256/1/3
f 265/1/3 256/1/3 255/1/3
f 266/3/3 258/3/3 257/3/3
f 266/1/3 257/1/3 265/1/3
f 266/3/3 260/3/3 259/3/3
f 266/3/3 259/3/3 258/3/3
f 267/1/3 262/1/3 261/1/3
f 267/3/3 260/3/3 266/3/3
f 267/1/3 261/1/3 260/1/3
f 268/1/3 262/1/3 267/1/3
f 269/2/3 244/2/3 262/2/3
f 271/1/3 265/1/3 255/1/3
f 272/3/3 266/3/3 265/3/3
f 272/1/3 265/1/3 271/1/3
f 272/3/3 267/3/3 266/3/3
f 272/3/3 268/3/3 267/3/3
f 273/1/3 262/1/3 268/1/3
f 273/3/3 268/3/3 272/3/3
f 274/1/3 262/1/3 273/1/3
f 275/2/3 264/2/3 263/2/3
f 275/2/3 255/2/3 264/2/3
f 276/1/3 271/1/3 255/1/3
f 276/2/3 255/2/3 275/2/3
f 277/2/3 270/2/3 269/2/3
f 277/1/3 262/1/3 274/1/3
f 277/2/3 269/2/3 262/2/3
f 278/2/3 270/2/3 277/2/3
f 279/1/3 271/1/3 276/1/3
f 279/1/3 276/1/3 275/1/3
f 280/3/3 272/3/3 271/3/3
f 280/1/3 271/1/3 279/1/3
f 280/3/3 274/3/3 273/3/3
f 280/3/3 273/3/3 272/3/3
f 281/1/3 278/1/3 277/1/3
f 281/3/3 274/3/3 280/3/3
f 281/1/3 277/1/3 274/1/3
f 282/1/3 278/1/3 281/1/3
f 283/1/3 279/1/3 275/1/3
f 283/3/3 280/3/3 279/3/3
f 283/3/3 282/3/3 281/3/3
f 283/3/3 281/3/3 280/3/3
f 284/3/3 282/3/3 283/3/3
f 285/3/3 282/3/3 284/3/3
f 286/1/3 278/1/3 282/1/3
f 286/3/3 282/3/3 285/3/3
f 287/2/3 275/2/3 263/2/3
f 287/1/3 283/1/3 275/1/3
f 287/1/3 284/1/3 283/1/3
f 288/1/3 284/1/3 287/1/3
f 289/1/3 278/1/3 286/1/3
f 289/1/3 286/1/3 285/1/3
f 290/2/3 270/2/3 278/2/3
f 290/1/3 278/1/3 289/1/3
f 291/2/3 288/2/3 287/2/3
f 291/2/3 287/2/3 263/2/3
f 292/2/3 288/2/3 291/2/3
f 293/3/3 285/3/3 284/3/3
f 293/1/3 284/1/3 288/1/3
f 294/3/3 285/3/3 293/3/3
f 295/3/3 285/3/3 294/3/3
f 296/1/3 289/1/3 285/1/3
f 296/3/3 285/3/3 295/3/3
f 297/2/3 270/2/3 290/2/3
f 297/2/3 290/2/3 289/2/3
f 298/2/3 270/2/3 297/2/3
f 299/3/3 295/3/3 294/3/3
f 299/1/3 294/1/3 293/1/3
f 300/3/3 295/3/3 299/3/3
f 301/3/3 295/3/3 300/3/3
f 302/1/3 296/1/3 295/1/3
f 302/3/3 295/3/3 301/3/3
f 303/2/3 288/2/3 292/2/3
f 303/1/3 293/1/3 288/1/3
f 303/1/3 299/1/3 293/1/3
f 303/1/3 300/1/3 299/1/3
f 304/1/3 300/1/3 303/1/3
f 305/3/3 301/3/3 300/3/3
f 305/1/3 300/1/3 304/1/3
f 306/3/3 301/3/3 305/3/3
f 307/3/3 301/3/3 306/3/3
f 308/1/3 302/1/3 301/1/3
f 308/3/3 301/3/3 307/3/3
f 309/1/3 296/1/3 302/1/3
f 309/1/3 302/1/3 308/1/3
f 309/1/3 289/1/3 296/1/3
f 310/2/3 297/2/3 289/2/3
f 310/1/3 289/1/3 309/1/3
f 311/1/3 306/1/3 305/1/3
f 311/2/3 304/2/3 303/2/3
f 311/1/3 305/1/3 304/1/3
f 312/1/3 306/1/3 311/1/3
f 313/3/3 307/3/3 306/3/3
f 313/1/3 306/1/3 312/1/3
f 314/3/3 307/3/3 313/3/3
f 315/3/3 307/3/3 314/3/3
f 316/1/3 308/1/3 307/1/3
f 316/3/3 307/3/3 315/3/3
f 316/1/3 309/1/3 308/1/3
f 317/1/3 309/1/3 316/1/3
f 318/2/3 310/2/3 309/2/3
f 318/1/3 309/1/3 317/1/3
f 319/2/3 312/2/3 311/2/3
f 319/2/3 303/2/3 292/2/3
f 319/2/3 311/2/3 303/2/3
f 320/2/3 312/2/3 319/2/3
f 321/3/3 315/3/3 314/3/3
f 321/1/3 314/1/3 313/1/3
f 321/1/3 313/1/3 312/1/3
f 322/1/3 317/1/3 316/1/3
f 322/3/3 315/3/3 321/3/3
f 322/1/3 316/1/3 315/1/3
f 323/2/3 297/2/3 310/2/3
f 323/2/3 310/2/3 318/2/3
f 323/2/3 318/2/3 317/2/3
f 324/2/3 297/2/3 323/2/3
f 325/2/3 312/2/3 320/2/3
f 326/2/3 312/2/3 325/2/3
f 327/1/3 321/1/3 312/1/3
f 327/2/3 312/2/3 326/2/3
f 327/1/3 322/1/3 321/1/3
f 328/1/3 322/1/3 327/1/3
f 329/1/3 317/1/3 322/1/3
f 329/1/3 322/1/3 328/1/3
f 330/2/3 323/2/3 317/2/3
f 330/1/3 317/1/3 329/1/3
f 331/2/3 323/2/3 330/2/3
f 332/2/3 323/2/3 331/2/3
f 333/2/3 328/2/3 327/2/3
f 333/2/3 327/2/3 326/2/3
f 334/2/3 328/2/3 333/2/3
f 335/2/3 331/2/3 330/2/3
f 335/2/3 330/2/3 329/2/3
f 336/2/3 331/2/3 335/2/3
f 337/1/3 329/1/3 328/1/3
f 337/2/3 328/2/3 334/2/3
f 338/1/3 329/1/3 337/1/3
f 339/1/3 329/1/3 338/1/3
f 340/2/3 335/2/3 329/2/3
f 340/1/3 329/1/3 339/1/3
f 341/2/3 337/2/3 334/2/3
f 341/2/3 338/2/3 337/2/3
f 342/2/3 338/2/3 341/2/3
f 343/1/3 339/1/3 338/1/3
f 343/2/3 338/2/3 342/2/3
f 344/1/3 339/1/3 343/1/3
f 345/1/3 339/1/3 344/1/3
f 346/2/3 340/2/3 339/2/3
f 346/1/3 339/1/3 345/1/3
f 347/2/3 335/2/3 340/2/3
f 347/2/3 340/2/3 346/2/3
f 348/2/3 335/2/3 347/2/3
f 349/2/3 343/2/3 342/2/3
f 349/2/3 344/2/3 343/2/3
f 350/2/3 344/2/3 349/2/3
f 351/1/3 345/1/3 344/1/3
f 351/2/3 344/2/3 350/2/3
f 352/1/3 345/1/3 351/1/3
f 353/1/3 345/1/3 352/1/3
f 354/2/3 346/2/3 345/2/3
f 354/1/3 345/1/3 353/1/3
f 354/2/3 347/2/3 346/2/3
f 355/2/3 347/2/3 354/2/3
f 356/2/3 347/2/3 355/2/3
f 357/2/3 352/2/3 351/2/3
f 357/2/3 351/2/3 350/2/3
f 358/2/3 352/2/3 357/2/3
f 359/1/3 353/1/3 352/1/3
f 359/2/3 352/2/3 358/2/3
f 360/2/3 355/2/3 354/2/3
f 360/1/3 353/1/3 359/1/3
f 360/2/3 354/2/3 353/2/3
f 361/2/3 355/2/3 360/2/3
f 362/2/3 355/2/3 361/2/3
f 363/2/3 359/2/3 358/2/3
f 363/2/3 361/2/3 360/2/3
f 363/2/3 360/2/3 359/2/3
f 364/2/3 361/2/3 363/2/3
f 365/2/3 361/2/3 364/2/3
f 366/2/3 361/2/3 365/2/3
f 367/2/3 365/2/3 364/2/3
f 368/2/3 365/2/3 367/2/3
f 369/2/3 365/2/3 368/2/3
f 370/2/3 365/2/3 369/2/3
f 371/2/3 369/2/3 368/2/3
f 372/2/3 369/2/3 371/2/3
f 373/2/3 369/2/3 372/2/3
f 374/2/3 369/2/3 373/2/3
f 375/2/3 373/2/3 372/2/3
f 376/2/3 373/2/3 375/2/3
f 377/2/3 373/2/3 376/2/3
f 378/2/3 373/2/3 377/2/3
f 379/2/3 377/2/3 376/2/3
f 380/2/3 377/2/3 379/2/3
f 381/2/4 382/2/4 384/2/4
f 384/2/4 382/2/4 385/2/4
f 383/2/4 384/2/4 388/2/4
f 385/2/4 386/2/4 388/2/4
f 384/2/4 385/2/4 388/2/4
f 388/2/4 386/2/4 389/2/4
f 387/2/4 388/2/4 392/2/4
f 389/2/4 390/2/4 392/2/4
f 388/2/4 389/2/4 392/2/4
f 392/2/4 390/2/4 393/2/4
f 391/2/4 392/2/4 396/2/4
f 393/2/4 394/2/4 396/2/4
f 392/2/4 393/2/4 396/2/4
f 396/2/4 394/2/4 397/2/4
f 395/2/4 396/2/4 400/2/4
f 397/2/4 398/2/4 400/2/4
f 396/2/4 397/2/4 400/2/4
f 400/2/4 398/2/4 401/2/4
f 399/2/4 400/2/4 404/2/4
f 401/2/4 402/2/4 404/2/4
f 400/2/4 401/2/4 404/2/4
f 404/2/4 402/2/4 405/2/4
f 403/2/4 404/2/4 408/2/4
f 405/2/4 406/2/4 408/2/4
f 404/2/4 405/2/4 408/2/4
f 408/2/4 406/2/4 409/2/4
f 407/2/4 408/2/4 412/2/4
f 409/2/4 410/2/4 412/2/4
f 408/2/4 409/2/4 412/2/4
f 412/2/4 410/2/4 413/2/4
f 411/2/4 412/2/4 416/2/4
f 413/2/4 414/2/4 416/2/4
f 412/2/4 413/2/4 416/2/4
f 416/2/4 414/2/4 417/2/4
f 415/2/4 416/2/4 420/2/4
f 417/2/4 418/2/4 420/2/4
f 416/2/4 417/2/4 420/2/4
f 420/2/4 418/2/4 421/2/4
f 419/2/4 420/2/4 424/2/4
f 421/2/4 422/2/4 424/2/4
f 420/2/4 421/2/4 424/2/4
f 424/2/4 422/2/4 425/2/4
f 423/2/4 424/2/4 427/2/4
f 425/2/4 426/2/4 427/2/4
f 424/2/4 425/2/4 427/2/4
f 427/2/4 426/2/4 428/2/4
f 428/2/4 426/2/4 429/2/4
f 429/2/4 426/2/4 430/2/4
f 428/2/4 429/2/4 431/2/4
f 431/2/4 429/2/4 432/2/4
f 432/2/4 429/2/4 433/2/4
f 433/2/4 429/2/4 434/2/4
f 432/2/4 433/2/4 435/2/4
f 435/2/4 433/2/4 436/2/4
f 436/2/4 433/2/4 437/2/4
f 437/2/4 433/2/4 438/2/4
f 436/2/4 437/2/4 439/2/4
f 439/2/4 437/2/4 440/2/4
f 440/2/4 437/2/4 441/2/4
f 441/2/4 437/2/4 442/2/4
f 440/2/4 441/2/4 443/2/4
f 443/2/4 441/2/4 444/2/4
f 444/2/4 441/2/4 445/2/4
f 445/2/4 441/2/4 446/2/4
f 444/2/4 445/2/4 447/2/4
f 447/2/4 445/2/4 448/2/4
f 448/2/4 445/2/4 449/2/4
f 449/2/4 445/2/4 450/2/4
f 448/2/4 449/2/4 451/2/4
f 451/2/4 449/2/4 452/2/4
f 452/2/4 449/2/4 453/2/4
f 453/2/4 449/2/4 454/2/4
f 452/2/4 453/2/4 455/2/4
f 455/2/4 453/2/4 456/2/4
f 456/2/4 453/2/4 457/2/4
f 457/2/4 453/2/4 458/2/4
f 456/2/4 457/2/4 459/2/4
f 459/2/4 457/2/4 460/2/4
f 460/2/4 457/2/4 461/2/4
f 461/2/4 457/2/4 462/2/4
f 460/2/4 461/2/4 463/2/4
f 463/2/4 461/2/4 464/2/4
f 464/2/4 461/2/4 465/2/4
f 465/2/4 461/2/4 466/2/4
f 464/2/4 465/2/4 467/2/4
f 467/2/4 465/2/4 468/2/4
f 468/2/4 465/2/4 469/2/4
f 469/2/4 465/2/4 470/2/4
f 468/2/4 469/2/4 471/2/4
f 471/2/4 469/2/4 472/2/4
f 475/2/5 474/2/5 473/2/5
f 476/2/5 474/2/5 475/2/5
f 481/2/5 478/2/5 477/2/5
f 482/2/5 478/2/5 481/2/5
f 483/2/5 480/2/5 479/2/5
f 484/2/5 480/2/5 483/2/5
f 489/2/5 486/2/5 485/2/5
f 490/2/5 486/2/5 489/2/5
f 491/2/5 488/2/5 487/2/5
f 492/2/5 488/2/5 491/2/5
f 497/2/5 494/2/5 493/2/5
f 498/2/5 494/2/5 497/2/5
f 499/2/5 496/2/5 495/2/5
f 500/2/5 496/2/5 499/2/5
f 505/2/5 502/2/5 501/2/5
f 506/2/5 502/2/5 505/2/5
f 507/2/5 504/2/5 503/2/5
f 508/2/5 504/2/5 507/2/5
f 513/2/5 510/2/5 509/2/5
f 514/2/5 510/2/5 513/2/5
f 515/2/5 512/2/5 511/2/5
f 516/2/5 512/2/5 515/2/5
f 521/2/5 518/2/5 517/2/5
f 522/2/5 518/2/5 521/2/5
f 523/2/5 520/2/5 519/2/5
f 524/2/5 520/2/5 523/2/5
f 529/2/5 526/2/5 525/2/5
f 530/2/5 526/2/5 529/2/5
f 531/2/5 528/2/5 527/2/5
f 532/2/5 528/2/5 531/2/5
f 537/2/5 534/2/5 533/2/5
f 538/2/5 534/2/5 537/2/5
f 539/2/5 536/2/5 535/2/5
f 540/2/5 536/2/5 539/2/5
f 545/2/5 542/2/5 541/2/5
f 546/2/5 542/2/5 545/2/5
f 547/2/5 544/2/5 543/2/5
f 548/2/5 544/2/5 547/2/5
f 553/2/5 550/2/5 549/2/5
f 554/2/5 550/2/5 553/2/5
f 555/2/5 552/2/5 551/2/5
f 556/2/5 552/2/5 555/2/5
f 561/2/5 558/2/5 557/2/5
f 562/2/5 558/2/5 561/2/5
f 563/2/5 560/2/5 559/2/5
f 564/2/5 560/2/5 563/2/5
f 565/2/6 566/2/6 569/2/6
f 569/2/6 566/2/6 570/2/6
f 567/2/6 568/2/6 571/2/6
f 571/2/6 568/2/6 572/2/6
f 573/2/6 574/2/6 577/2/6
f 577/2/6 574/2/6 578/2/6
f 575/2/6 576/2/6 579/2/6
f 579/2/6 576/2/6 580/2/6
f 581/2/6 582/2/6 585/2/6
f 585/2/6 582/2/6 586/2/6
f 583/2/6 584/2/6 587/2/6
f 587/2/6 584/2/6 588/2/6
f 589/2/6 590/2/6 593/2/6
f 593/2/6 590/2/6 594/2/6
f 591/2/6 592/2/6 595/2/6
f 595/2/6 592/2/6 596/2/6
f 597/2/6 598/2/6 601/2/6
f 601/2/6 598/2/6 602/2/6
f 599/2/6 600/2/6 603/2/6
f 603/2/6 600/2/6 604/2/6
f 605/2/6 606/2/6 609/2/6
f 609/2/6 606/2/6 610/2/6
f 607/2/6 608/2/6 611/2/6
f 611/2/6 608/2/6 612/2/6
f 613/2/6 614/2/6 617/2/6
f 617/2/6 614/2/6 618/2/6
f 615/2/6 616/2/6 619/2/6
f 619/2/6 616/2/6 620/2/6
f 621/2/6 622/2/6 625/2/6
f 625/2/6 622/2/6 626/2/6
f 623/2/6 624/2/6 627/2/6
f 627/2/6 624/2/6 628/2/6
f 629/2/6 630/2/6 633/2/6
f 633/2/6 630/2/6 634/2/6
f 631/2/6 632/2/6 635/2/6
f 635/2/6 632/2/6 636/2/6
f 637/2/6 638/2/6 641/2/6
f 641/2/6 638/2/6 642/2/6
f 639/2/6 640/2/6 643/2/6
f 643/2/6 640/2/6 644/2/6
f 645/2/6 646/2/6 649/2/6
f 649/2/6 646/2/6 650/2/6
f 647/2/6 648/2/6 651/2/6
f 651/2/6 648/2/6 652/2/6
f 653/2/6 654/2/6 655/2/6
f 655/2/6 654/2/6 656/2/6
