# MagicaVoxel @ Ephtracy

# group
o 

# material
mtllib id_char2.mtl
usemtl palette

# normals
vn -1 0 0
vn 1 0 0
vn 0 0 1
vn 0 0 -1
vn 0 -1 0
vn 0 1 0

# texcoords
vt 0.0332031 0.5
vt 0.275391 0.5
vt 0.369141 0.5
vt 0.537109 0.5
vt 0.783203 0.5
vt 0.974609 0.5
vt 0.986328 0.5
vt 0.990234 0.5

# verts
v 0 3 -0.4
v 0 3 -0.6
v 0 3.2 -0.4
v 0 3.2 -0.6
v 0.2 3.6 -0.2
v 0.2 3.6 -0.4
v 0.2 3.6 -0.6
v 0.2 3.6 -0.8
v 0.2 3.8 -0.4
v 0.2 3.8 -0.6
v 0.2 4.2 -0.2
v 0.2 4.2 -0.8
v 0.4 3.4 -0.2
v 0.4 3.4 -0.8
v 0.4 3.6 -0.2
v 0.4 3.6 -0.4
v 0.4 3.6 -0.6
v 0.4 3.6 -0.8
v 0.4 3.6 -1
v 0.4 4 0
v 0.4 4 -0.2
v 0.4 4.2 -0.2
v 0.4 4.2 -0.8
v 0.4 4.2 -1
v 0.4 4.4 0
v 0.4 4.4 -0.8
v 0.6 2 -0.2
v 0.6 2 -0.6
v 0.6 2.2 -0.2
v 0.6 2.2 -0.4
v 0.6 2.2 -0.6
v 0.6 2.6 -0.2
v 0.6 2.6 -0.4
v 0.6 2.6 -0.6
v 0.6 2.6 -0.8
v 0.6 2.7 -0.2
v 0.6 2.7 -0.8
v 0.6 3 -0.4
v 0.6 3 -0.6
v 0.6 3.2 -0.2
v 0.6 3.2 -0.4
v 0.6 3.2 -0.6
v 0.6 3.2 -0.8
v 0.6 3.4 -0.8
v 0.6 3.4 -1
v 0.6 3.6 -0.8
v 0.6 3.6 -1
v 0.6 3.6 -1.2
v 0.6 4.2 -1
v 0.6 4.2 -1.2
v 0.7 3.2 -0.3
v 0.7 3.2 -0.7
v 0.7 3.3 -0.3
v 0.7 3.3 -0.7
v 0.8 2.9 -0.1
v 0.8 2.9 -0.2
v 0.8 2.9 -0.8
v 0.8 2.9 -0.9
v 0.8 3 -0.1
v 0.8 3 -0.2
v 0.8 3.1 -0.1
v 0.8 3.1 -0.2
v 0.8 3.2 -0.2
v 0.8 3.2 -0.3
v 0.8 3.2 -0.7
v 0.8 3.2 -0.8
v 0.8 3.3 -0.2
v 0.8 3.3 -0.3
v 0.8 3.3 -0.4
v 0.8 3.3 -0.6
v 0.8 3.3 -0.7
v 0.8 3.3 -0.9
v 0.8 3.4 -0.4
v 0.8 3.4 -0.6
v 0.9 3 -0.9
v 0.9 3 -1
v 0.9 3.1 -0.1
v 0.9 3.1 -0.2
v 0.9 3.2 -0.1
v 0.9 3.2 -0.2
v 0.9 3.2 -0.9
v 0.9 3.2 -1
v 1 3.8 0
v 1 3.8 -0.2
v 1 4 0
v 1 4 -0.2
v 1 4.4 -0.2
v 1 4.4 -0.8
v 1 4.6 -0.2
v 1 4.6 -0.8
v 1.1 2.9 -0.1
v 1.1 2.9 -0.2
v 1.1 3 -0.1
v 1.1 3 -0.2
v 1.1 3.1 -0.1
v 1.1 3.1 -0.2
v 1.1 3.2 -0.2
v 1.1 3.2 -0.4
v 1.1 3.2 -0.6
v 1.1 3.2 -0.7
v 1.1 3.3 -0.2
v 1.1 3.3 -0.4
v 1.1 3.3 -0.6
v 1.1 3.3 -0.7
v 1.2 2 -0.2
v 1.2 2 -0.6
v 1.2 2.2 -0.2
v 1.2 2.2 -0.4
v 1.2 2.2 -0.6
v 1.2 2.6 -0.4
v 1.2 2.6 -0.6
v 1.2 4.2 -0.8
v 1.2 4.2 -1
v 1.2 4.4 -0.8
v 1.2 4.4 -1
v 0.8 2 -0.2
v 0.8 2 -0.6
v 0.8 2.2 -0.2
v 0.8 2.2 -0.4
v 0.8 2.2 -0.6
v 0.8 2.6 -0.4
v 0.8 2.6 -0.6
v 0.9 2.9 -0.1
v 0.9 2.9 -0.2
v 0.9 3 -0.1
v 0.9 3 -0.2
v 0.9 3.1 -0.1
v 0.9 3.1 -0.2
v 0.9 3.2 -0.2
v 0.9 3.2 -0.4
v 0.9 3.2 -0.6
v 0.9 3.2 -0.7
v 0.9 3.3 -0.2
v 0.9 3.3 -0.4
v 0.9 3.3 -0.6
v 0.9 3.3 -0.7
v 1 4.2 0
v 1 4.2 -0.2
v 1 4.4 0
v 1 4.4 -0.2
v 1.1 3 -0.9
v 1.1 3 -1
v 1.1 3.1 -0.1
v 1.1 3.1 -0.2
v 1.1 3.2 -0.1
v 1.1 3.2 -0.2
v 1.1 3.2 -0.9
v 1.1 3.2 -1
v 1.2 2.9 -0.1
v 1.2 2.9 -0.2
v 1.2 2.9 -0.8
v 1.2 2.9 -0.9
v 1.2 3 -0.1
v 1.2 3 -0.2
v 1.2 3.1 -0.1
v 1.2 3.1 -0.2
v 1.2 3.2 -0.2
v 1.2 3.2 -0.3
v 1.2 3.2 -0.7
v 1.2 3.2 -0.8
v 1.2 3.3 -0.2
v 1.2 3.3 -0.3
v 1.2 3.3 -0.4
v 1.2 3.3 -0.6
v 1.2 3.3 -0.7
v 1.2 3.3 -0.9
v 1.2 3.4 -0.4
v 1.2 3.4 -0.6
v 1.3 3.2 -0.3
v 1.3 3.2 -0.7
v 1.3 3.3 -0.3
v 1.3 3.3 -0.7
v 1.4 2 -0.2
v 1.4 2 -0.6
v 1.4 2.2 -0.2
v 1.4 2.2 -0.4
v 1.4 2.2 -0.6
v 1.4 2.6 -0.2
v 1.4 2.6 -0.4
v 1.4 2.6 -0.6
v 1.4 2.6 -0.8
v 1.4 2.7 -0.2
v 1.4 2.7 -0.8
v 1.4 3 -0.4
v 1.4 3 -0.6
v 1.4 3.2 -0.2
v 1.4 3.2 -0.4
v 1.4 3.2 -0.6
v 1.4 3.2 -0.8
v 1.4 3.4 -0.8
v 1.4 3.4 -1
v 1.4 3.6 -0.8
v 1.4 3.6 -1
v 1.4 3.6 -1.2
v 1.4 4.2 -1
v 1.4 4.2 -1.2
v 1.6 3.4 -0.2
v 1.6 3.4 -0.8
v 1.6 3.6 -0.2
v 1.6 3.6 -0.4
v 1.6 3.6 -0.6
v 1.6 3.6 -0.8
v 1.6 3.6 -1
v 1.6 3.8 0
v 1.6 3.8 -0.2
v 1.6 4 0
v 1.6 4 -0.2
v 1.6 4.2 -0.2
v 1.6 4.2 -0.8
v 1.6 4.4 -0.8
v 1.6 4.4 -1
v 1.6 4.6 -0.2
v 1.6 4.6 -0.8
v 1.8 3.6 -0.2
v 1.8 3.6 -0.4
v 1.8 3.6 -0.6
v 1.8 3.6 -0.8
v 1.8 3.8 -0.4
v 1.8 3.8 -0.6
v 1.8 4 0
v 1.8 4 -0.2
v 1.8 4.2 0
v 1.8 4.2 -0.8
v 2 3 -0.4
v 2 3 -0.6
v 2 3.2 -0.4
v 2 3.2 -0.6
v 0.4 4 0
v 0.4 4.4 0
v 1 3.8 0
v 1 4 0
v 1 4.2 0
v 1 4.4 0
v 1.6 3.8 0
v 1.6 4 0
v 1.8 4 0
v 1.8 4.2 0
v 0.8 2.9 -0.1
v 0.8 3 -0.1
v 0.8 3.1 -0.1
v 0.9 2.9 -0.1
v 0.9 3 -0.1
v 0.9 3.1 -0.1
v 0.9 3.2 -0.1
v 1.1 2.9 -0.1
v 1.1 3 -0.1
v 1.1 3.1 -0.1
v 1.1 3.2 -0.1
v 1.2 2.9 -0.1
v 1.2 3 -0.1
v 1.2 3.1 -0.1
v 0.2 3.6 -0.2
v 0.2 4.2 -0.2
v 0.4 3.4 -0.2
v 0.4 3.6 -0.2
v 0.4 4 -0.2
v 0.4 4.2 -0.2
v 0.6 2 -0.2
v 0.6 2.2 -0.2
v 0.6 2.6 -0.2
v 0.6 2.7 -0.2
v 0.6 3.2 -0.2
v 0.6 3.6 -0.2
v 0.6 3.8 -0.2
v 0.8 2 -0.2
v 0.8 2.2 -0.2
v 0.8 2.9 -0.2
v 0.8 3 -0.2
v 0.8 3.1 -0.2
v 0.8 3.2 -0.2
v 0.8 3.3 -0.2
v 0.8 3.6 -0.2
v 0.8 3.8 -0.2
v 0.9 2.9 -0.2
v 0.9 3 -0.2
v 0.9 3.1 -0.2
v 0.9 3.2 -0.2
v 0.9 3.3 -0.2
v 1 3.8 -0.2
v 1 4 -0.2
v 1 4.2 -0.2
v 1 4.4 -0.2
v 1 4.6 -0.2
v 1.1 2.9 -0.2
v 1.1 3 -0.2
v 1.1 3.1 -0.2
v 1.1 3.2 -0.2
v 1.1 3.3 -0.2
v 1.2 2 -0.2
v 1.2 2.2 -0.2
v 1.2 2.9 -0.2
v 1.2 3 -0.2
v 1.2 3.1 -0.2
v 1.2 3.2 -0.2
v 1.2 3.3 -0.2
v 1.2 3.6 -0.2
v 1.2 3.8 -0.2
v 1.4 2 -0.2
v 1.4 2.2 -0.2
v 1.4 2.6 -0.2
v 1.4 2.7 -0.2
v 1.4 3.2 -0.2
v 1.4 3.6 -0.2
v 1.4 3.8 -0.2
v 1.6 3.4 -0.2
v 1.6 3.6 -0.2
v 1.6 3.8 -0.2
v 1.6 4 -0.2
v 1.6 4.2 -0.2
v 1.6 4.6 -0.2
v 1.8 3.6 -0.2
v 1.8 4 -0.2
v 0.7 3.2 -0.3
v 0.7 3.3 -0.3
v 0.8 3.2 -0.3
v 0.8 3.3 -0.3
v 1.2 3.2 -0.3
v 1.2 3.3 -0.3
v 1.3 3.2 -0.3
v 1.3 3.3 -0.3
v 0 3 -0.4
v 0 3.2 -0.4
v 0.2 3 -0.4
v 0.2 3.2 -0.4
v 0.3 3 -0.4
v 0.3 3.2 -0.4
v 0.6 2.2 -0.4
v 0.6 2.6 -0.4
v 0.6 3 -0.4
v 0.6 3.2 -0.4
v 0.7 2.6 -0.4
v 0.8 2.2 -0.4
v 0.8 2.6 -0.4
v 0.8 3.3 -0.4
v 0.8 3.4 -0.4
v 0.9 3.2 -0.4
v 0.9 3.3 -0.4
v 1.1 3.2 -0.4
v 1.1 3.3 -0.4
v 1.2 2.2 -0.4
v 1.2 2.6 -0.4
v 1.2 3.3 -0.4
v 1.2 3.4 -0.4
v 1.3 2.6 -0.4
v 1.4 2.2 -0.4
v 1.4 2.6 -0.4
v 1.4 3 -0.4
v 1.4 3.2 -0.4
v 1.7 3 -0.4
v 1.7 3.2 -0.4
v 1.8 3 -0.4
v 1.8 3.2 -0.4
v 2 3 -0.4
v 2 3.2 -0.4
v 0.9 3.2 -0.7
v 0.9 3.3 -0.7
v 1.1 3.2 -0.7
v 1.1 3.3 -0.7
v 0 3 -0.6
v 0 3.2 -0.6
v 0.2 3 -0.6
v 0.2 3.2 -0.6
v 0.3 3 -0.6
v 0.3 3.2 -0.6
v 0.6 2 -0.6
v 0.6 2.2 -0.6
v 0.6 2.6 -0.6
v 0.6 3 -0.6
v 0.6 3.2 -0.6
v 0.7 2.6 -0.6
v 0.8 2 -0.6
v 0.8 2.2 -0.6
v 0.8 2.6 -0.6
v 0.8 3.3 -0.6
v 0.8 3.4 -0.6
v 0.9 3.2 -0.6
v 0.9 3.3 -0.6
v 1.1 3.2 -0.6
v 1.1 3.3 -0.6
v 1.2 2 -0.6
v 1.2 2.2 -0.6
v 1.2 2.6 -0.6
v 1.2 3.3 -0.6
v 1.2 3.4 -0.6
v 1.3 2.6 -0.6
v 1.4 2 -0.6
v 1.4 2.2 -0.6
v 1.4 2.6 -0.6
v 1.4 3 -0.6
v 1.4 3.2 -0.6
v 1.7 3 -0.6
v 1.7 3.2 -0.6
v 1.8 3 -0.6
v 1.8 3.2 -0.6
v 2 3 -0.6
v 2 3.2 -0.6
v 0.7 3.2 -0.7
v 0.7 3.3 -0.7
v 0.8 3.2 -0.7
v 0.8 3.3 -0.7
v 1.2 3.2 -0.7
v 1.2 3.3 -0.7
v 1.3 3.2 -0.7
v 1.3 3.3 -0.7
v 0.2 3.6 -0.8
v 0.2 4.2 -0.8
v 0.4 3.4 -0.8
v 0.4 3.6 -0.8
v 0.4 4.2 -0.8
v 0.4 4.4 -0.8
v 0.6 2.6 -0.8
v 0.6 2.7 -0.8
v 0.6 3.2 -0.8
v 0.6 3.4 -0.8
v 0.6 3.6 -0.8
v 0.8 2.9 -0.8
v 0.8 3.2 -0.8
v 1 4.4 -0.8
v 1 4.6 -0.8
v 1.2 2.9 -0.8
v 1.2 3.2 -0.8
v 1.2 4.2 -0.8
v 1.2 4.4 -0.8
v 1.4 2.6 -0.8
v 1.4 2.7 -0.8
v 1.4 3.2 -0.8
v 1.4 3.4 -0.8
v 1.4 3.6 -0.8
v 1.6 3.4 -0.8
v 1.6 3.6 -0.8
v 1.6 4.2 -0.8
v 1.6 4.4 -0.8
v 1.6 4.6 -0.8
v 1.8 3.6 -0.8
v 1.8 4.2 -0.8
v 0.8 2.9 -0.9
v 0.8 3.3 -0.9
v 0.9 3 -0.9
v 0.9 3.2 -0.9
v 1.1 3 -0.9
v 1.1 3.2 -0.9
v 1.2 2.9 -0.9
v 1.2 3.3 -0.9
v 0.4 3.6 -1
v 0.4 4.2 -1
v 0.6 3.4 -1
v 0.6 3.6 -1
v 0.6 4.2 -1
v 0.9 3 -1
v 0.9 3.2 -1
v 1.1 3 -1
v 1.1 3.2 -1
v 1.2 4.2 -1
v 1.2 4.4 -1
v 1.4 3.4 -1
v 1.4 3.6 -1
v 1.4 4.2 -1
v 1.6 3.6 -1
v 1.6 4.4 -1
v 0.6 3.6 -1.2
v 0.6 4.2 -1.2
v 1.4 3.6 -1.2
v 1.4 4.2 -1.2
v 0.6 2 -0.2
v 0.8 2 -0.2
v 1.2 2 -0.2
v 1.4 2 -0.2
v 0.6 2 -0.6
v 0.8 2 -0.6
v 1.2 2 -0.6
v 1.4 2 -0.6
v 0.6 2.6 -0.2
v 1.4 2.6 -0.2
v 0.7 2.6 -0.3
v 1.3 2.6 -0.3
v 0.6 2.6 -0.4
v 0.7 2.6 -0.4
v 0.8 2.6 -0.4
v 1.2 2.6 -0.4
v 1.3 2.6 -0.4
v 1.4 2.6 -0.4
v 0.6 2.6 -0.6
v 0.7 2.6 -0.6
v 0.8 2.6 -0.6
v 1.2 2.6 -0.6
v 1.3 2.6 -0.6
v 1.4 2.6 -0.6
v 0.7 2.6 -0.7
v 1.3 2.6 -0.7
v 0.6 2.6 -0.8
v 1.4 2.6 -0.8
v 0.8 2.9 -0.1
v 0.9 2.9 -0.1
v 1.1 2.9 -0.1
v 1.2 2.9 -0.1
v 0.8 2.9 -0.2
v 0.9 2.9 -0.2
v 1.1 2.9 -0.2
v 1.2 2.9 -0.2
v 0.8 2.9 -0.8
v 1.2 2.9 -0.8
v 0.8 2.9 -0.9
v 1.2 2.9 -0.9
v 0 3 -0.4
v 0.2 3 -0.4
v 0.3 3 -0.4
v 0.6 3 -0.4
v 1.4 3 -0.4
v 1.7 3 -0.4
v 1.8 3 -0.4
v 2 3 -0.4
v 0 3 -0.6
v 0.2 3 -0.6
v 0.3 3 -0.6
v 0.6 3 -0.6
v 1.4 3 -0.6
v 1.7 3 -0.6
v 1.8 3 -0.6
v 2 3 -0.6
v 0.9 3 -0.9
v 1.1 3 -0.9
v 0.9 3 -1
v 1.1 3 -1
v 0.9 3.1 -0.1
v 1.1 3.1 -0.1
v 0.9 3.1 -0.2
v 1.1 3.1 -0.2
v 0.4 3.4 -0.2
v 1.6 3.4 -0.2
v 0.8 3.4 -0.4
v 1.2 3.4 -0.4
v 0.8 3.4 -0.6
v 1.2 3.4 -0.6
v 0.4 3.4 -0.8
v 0.6 3.4 -0.8
v 1.4 3.4 -0.8
v 1.6 3.4 -0.8
v 0.6 3.4 -1
v 1.4 3.4 -1
v 0.2 3.6 -0.2
v 0.4 3.6 -0.2
v 1.6 3.6 -0.2
v 1.8 3.6 -0.2
v 0.2 3.6 -0.4
v 0.4 3.6 -0.4
v 1.6 3.6 -0.4
v 1.8 3.6 -0.4
v 0.2 3.6 -0.6
v 0.4 3.6 -0.6
v 1.6 3.6 -0.6
v 1.8 3.6 -0.6
v 0.2 3.6 -0.8
v 0.4 3.6 -0.8
v 0.6 3.6 -0.8
v 1.4 3.6 -0.8
v 1.6 3.6 -0.8
v 1.8 3.6 -0.8
v 0.4 3.6 -1
v 0.6 3.6 -1
v 1.4 3.6 -1
v 1.6 3.6 -1
v 0.6 3.6 -1.2
v 1.4 3.6 -1.2
v 1 3.8 0
v 1.6 3.8 0
v 1 3.8 -0.2
v 1.2 3.8 -0.2
v 1.4 3.8 -0.2
v 1.6 3.8 -0.2
v 0.4 4 0
v 1 4 0
v 1.6 4 0
v 1.8 4 0
v 0.4 4 -0.2
v 1 4 -0.2
v 1.6 4 -0.2
v 1.8 4 -0.2
v 0.6 2.2 -0.2
v 0.8 2.2 -0.2
v 1.2 2.2 -0.2
v 1.4 2.2 -0.2
v 0.6 2.2 -0.4
v 0.8 2.2 -0.4
v 1.2 2.2 -0.4
v 1.4 2.2 -0.4
v 0.8 3.1 -0.1
v 0.9 3.1 -0.1
v 1.1 3.1 -0.1
v 1.2 3.1 -0.1
v 0.8 3.1 -0.2
v 0.9 3.1 -0.2
v 1.1 3.1 -0.2
v 1.2 3.1 -0.2
v 0.9 3.2 -0.1
v 1.1 3.2 -0.1
v 0.6 3.2 -0.2
v 0.8 3.2 -0.2
v 0.9 3.2 -0.2
v 1.1 3.2 -0.2
v 1.2 3.2 -0.2
v 1.4 3.2 -0.2
v 0.7 3.2 -0.3
v 0.8 3.2 -0.3
v 1.2 3.2 -0.3
v 1.3 3.2 -0.3
v 0 3.2 -0.4
v 0.2 3.2 -0.4
v 0.3 3.2 -0.4
v 0.6 3.2 -0.4
v 0.9 3.2 -0.4
v 1.1 3.2 -0.4
v 1.4 3.2 -0.4
v 1.7 3.2 -0.4
v 1.8 3.2 -0.4
v 2 3.2 -0.4
v 0 3.2 -0.6
v 0.2 3.2 -0.6
v 0.3 3.2 -0.6
v 0.6 3.2 -0.6
v 0.9 3.2 -0.6
v 1.1 3.2 -0.6
v 1.4 3.2 -0.6
v 1.7 3.2 -0.6
v 1.8 3.2 -0.6
v 2 3.2 -0.6
v 0.7 3.2 -0.7
v 0.8 3.2 -0.7
v 0.9 3.2 -0.7
v 1.1 3.2 -0.7
v 1.2 3.2 -0.7
v 1.3 3.2 -0.7
v 0.6 3.2 -0.8
v 0.8 3.2 -0.8
v 1.2 3.2 -0.8
v 1.4 3.2 -0.8
v 0.9 3.2 -0.9
v 1.1 3.2 -0.9
v 0.9 3.2 -1
v 1.1 3.2 -1
v 0.8 3.3 -0.2
v 0.9 3.3 -0.2
v 1.1 3.3 -0.2
v 1.2 3.3 -0.2
v 0.7 3.3 -0.3
v 0.8 3.3 -0.3
v 1.2 3.3 -0.3
v 1.3 3.3 -0.3
v 0.8 3.3 -0.4
v 0.9 3.3 -0.4
v 1.1 3.3 -0.4
v 1.2 3.3 -0.4
v 0.8 3.3 -0.6
v 0.9 3.3 -0.6
v 1.1 3.3 -0.6
v 1.2 3.3 -0.6
v 0.7 3.3 -0.7
v 0.8 3.3 -0.7
v 0.9 3.3 -0.7
v 1.1 3.3 -0.7
v 1.2 3.3 -0.7
v 1.3 3.3 -0.7
v 0.8 3.3 -0.9
v 1.2 3.3 -0.9
v 1 4.2 0
v 1.8 4.2 0
v 0.2 4.2 -0.2
v 0.4 4.2 -0.2
v 1 4.2 -0.2
v 1.6 4.2 -0.2
v 0.2 4.2 -0.8
v 0.4 4.2 -0.8
v 1.2 4.2 -0.8
v 1.6 4.2 -0.8
v 1.8 4.2 -0.8
v 0.4 4.2 -1
v 0.6 4.2 -1
v 1.2 4.2 -1
v 1.4 4.2 -1
v 0.6 4.2 -1.2
v 1.4 4.2 -1.2
v 0.4 4.4 0
v 1 4.4 0
v 1 4.4 -0.2
v 0.4 4.4 -0.8
v 1 4.4 -0.8
v 1.2 4.4 -0.8
v 1.6 4.4 -0.8
v 1.2 4.4 -1
v 1.6 4.4 -1
v 1 4.6 -0.2
v 1.6 4.6 -0.2
v 1 4.6 -0.8
v 1.6 4.6 -0.8

# faces
f 3/3/1 2/3/1 1/3/1
f 4/3/1 2/3/1 3/3/1
f 9/8/1 6/8/1 5/8/1
f 9/3/1 7/3/1 6/3/1
f 10/8/1 8/8/1 7/8/1
f 10/3/1 7/3/1 9/3/1
f 11/8/1 9/8/1 5/8/1
f 11/8/1 10/8/1 9/8/1
f 12/8/1 8/8/1 10/8/1
f 12/8/1 10/8/1 11/8/1
f 15/3/1 14/3/1 13/3/1
f 16/3/1 14/3/1 15/3/1
f 17/3/1 14/3/1 16/3/1
f 18/3/1 14/3/1 17/3/1
f 22/8/1 21/8/1 20/8/1
f 23/8/1 19/8/1 18/8/1
f 24/8/1 19/8/1 23/8/1
f 25/8/1 22/8/1 20/8/1
f 25/8/1 23/8/1 22/8/1
f 26/8/1 23/8/1 25/8/1
f 29/5/1 28/5/1 27/5/1
f 30/5/1 28/5/1 29/5/1
f 31/5/1 28/5/1 30/5/1
f 33/7/1 31/7/1 30/7/1
f 34/7/1 31/7/1 33/7/1
f 36/6/1 34/6/1 33/6/1
f 36/6/1 35/6/1 34/6/1
f 36/6/1 33/6/1 32/6/1
f 37/6/1 35/6/1 36/6/1
f 38/2/1 37/2/1 36/2/1
f 39/2/1 37/2/1 38/2/1
f 40/2/1 38/2/1 36/2/1
f 41/2/1 38/2/1 40/2/1
f 42/2/1 37/2/1 39/2/1
f 43/2/1 37/2/1 42/2/1
f 46/8/1 45/8/1 44/8/1
f 47/8/1 45/8/1 46/8/1
f 49/8/1 48/8/1 47/8/1
f 50/8/1 48/8/1 49/8/1
f 53/2/1 52/2/1 51/2/1
f 54/2/1 52/2/1 53/2/1
f 59/6/1 56/6/1 55/6/1
f 60/6/1 56/6/1 59/6/1
f 61/2/1 60/2/1 59/2/1
f 62/2/1 60/2/1 61/2/1
f 66/2/1 58/2/1 57/2/1
f 67/2/1 64/2/1 63/2/1
f 68/2/1 64/2/1 67/2/1
f 71/2/1 66/2/1 65/2/1
f 72/2/1 58/2/1 66/2/1
f 72/2/1 66/2/1 71/2/1
f 73/3/1 70/3/1 69/3/1
f 74/3/1 70/3/1 73/3/1
f 79/2/1 78/2/1 77/2/1
f 80/2/1 78/2/1 79/2/1
f 81/2/1 76/2/1 75/2/1
f 82/2/1 76/2/1 81/2/1
f 85/8/1 84/8/1 83/8/1
f 86/8/1 84/8/1 85/8/1
f 89/8/1 88/8/1 87/8/1
f 90/8/1 88/8/1 89/8/1
f 93/6/1 92/6/1 91/6/1
f 94/6/1 92/6/1 93/6/1
f 95/2/1 94/2/1 93/2/1
f 96/2/1 94/2/1 95/2/1
f 101/2/1 98/2/1 97/2/1
f 102/2/1 98/2/1 101/2/1
f 103/2/1 100/2/1 99/2/1
f 104/2/1 100/2/1 103/2/1
f 107/5/1 106/5/1 105/5/1
f 108/5/1 106/5/1 107/5/1
f 109/5/1 106/5/1 108/5/1
f 110/7/1 109/7/1 108/7/1
f 111/7/1 109/7/1 110/7/1
f 114/8/1 113/8/1 112/8/1
f 115/8/1 113/8/1 114/8/1
f 116/5/2 117/5/2 118/5/2
f 118/5/2 117/5/2 119/5/2
f 119/5/2 117/5/2 120/5/2
f 119/7/2 120/7/2 121/7/2
f 121/7/2 120/7/2 122/7/2
f 123/6/2 124/6/2 125/6/2
f 125/6/2 124/6/2 126/6/2
f 125/2/2 126/2/2 127/2/2
f 127/2/2 126/2/2 128/2/2
f 129/2/2 130/2/2 133/2/2
f 133/2/2 130/2/2 134/2/2
f 131/2/2 132/2/2 135/2/2
f 135/2/2 132/2/2 136/2/2
f 137/8/2 138/8/2 139/8/2
f 139/8/2 138/8/2 140/8/2
f 143/2/2 144/2/2 145/2/2
f 145/2/2 144/2/2 146/2/2
f 141/2/2 142/2/2 147/2/2
f 147/2/2 142/2/2 148/2/2
f 149/6/2 150/6/2 153/6/2
f 153/6/2 150/6/2 154/6/2
f 153/2/2 154/2/2 155/2/2
f 155/2/2 154/2/2 156/2/2
f 151/2/2 152/2/2 160/2/2
f 157/2/2 158/2/2 161/2/2
f 161/2/2 158/2/2 162/2/2
f 159/2/2 160/2/2 165/2/2
f 160/2/2 152/2/2 166/2/2
f 165/2/2 160/2/2 166/2/2
f 163/3/2 164/3/2 167/3/2
f 167/3/2 164/3/2 168/3/2
f 169/2/2 170/2/2 171/2/2
f 171/2/2 170/2/2 172/2/2
f 173/5/2 174/5/2 175/5/2
f 175/5/2 174/5/2 176/5/2
f 176/5/2 174/5/2 177/5/2
f 176/7/2 177/7/2 179/7/2
f 179/7/2 177/7/2 180/7/2
f 179/6/2 180/6/2 182/6/2
f 180/6/2 181/6/2 182/6/2
f 178/6/2 179/6/2 182/6/2
f 182/6/2 181/6/2 183/6/2
f 182/2/2 183/2/2 184/2/2
f 184/2/2 183/2/2 185/2/2
f 182/2/2 184/2/2 186/2/2
f 186/2/2 184/2/2 187/2/2
f 185/2/2 183/2/2 188/2/2
f 188/2/2 183/2/2 189/2/2
f 190/8/2 191/8/2 192/8/2
f 192/8/2 191/8/2 193/8/2
f 193/8/2 194/8/2 195/8/2
f 195/8/2 194/8/2 196/8/2
f 197/3/2 198/3/2 199/3/2
f 199/3/2 198/3/2 200/3/2
f 200/3/2 198/3/2 201/3/2
f 201/3/2 198/3/2 202/3/2
f 204/8/2 205/8/2 206/8/2
f 206/8/2 205/8/2 207/8/2
f 202/8/2 203/8/2 209/8/2
f 209/8/2 203/8/2 210/8/2
f 208/8/2 209/8/2 210/8/2
f 210/8/2 203/8/2 211/8/2
f 208/8/2 210/8/2 212/8/2
f 212/8/2 210/8/2 213/8/2
f 214/8/2 215/8/2 218/8/2
f 215/3/2 216/3/2 218/3/2
f 216/8/2 217/8/2 219/8/2
f 218/3/2 216/3/2 219/3/2
f 214/8/2 218/8/2 221/8/2
f 218/8/2 219/8/2 221/8/2
f 220/8/2 221/8/2 222/8/2
f 219/8/2 217/8/2 223/8/2
f 222/8/2 221/8/2 223/8/2
f 221/8/2 219/8/2 223/8/2
f 224/3/2 225/3/2 226/3/2
f 226/3/2 225/3/2 227/3/2
f 231/8/3 229/8/3 228/8/3
f 232/8/3 229/8/3 231/8/3
f 233/8/3 229/8/3 232/8/3
f 234/8/3 231/8/3 230/8/3
f 234/8/3 232/8/3 231/8/3
f 235/8/3 232/8/3 234/8/3
f 236/8/3 232/8/3 235/8/3
f 237/8/3 232/8/3 236/8/3
f 241/6/3 239/6/3 238/6/3
f 242/2/3 240/2/3 239/2/3
f 242/6/3 239/6/3 241/6/3
f 243/2/3 240/2/3 242/2/3
f 247/2/3 244/2/3 243/2/3
f 248/2/3 244/2/3 247/2/3
f 249/6/3 246/6/3 245/6/3
f 250/2/3 247/2/3 246/2/3
f 250/6/3 246/6/3 249/6/3
f 251/2/3 247/2/3 250/2/3
f 255/8/3 253/8/3 252/8/3
f 256/8/3 253/8/3 255/8/3
f 257/8/3 253/8/3 256/8/3
f 263/3/3 255/3/3 254/3/3
f 263/3/3 256/3/3 255/3/3
f 264/3/3 256/3/3 263/3/3
f 265/5/3 259/5/3 258/5/3
f 266/5/3 259/5/3 265/5/3
f 267/2/3 262/2/3 261/2/3
f 268/2/3 262/2/3 267/2/3
f 269/2/3 262/2/3 268/2/3
f 270/2/3 262/2/3 269/2/3
f 272/3/3 263/3/3 254/3/3
f 272/4/3 264/4/3 263/4/3
f 273/3/3 256/3/3 264/3/3
f 273/4/3 264/4/3 272/4/3
f 274/2/3 267/2/3 261/2/3
f 276/2/3 271/2/3 270/2/3
f 276/2/3 270/2/3 269/2/3
f 277/2/3 271/2/3 276/2/3
f 278/2/3 271/2/3 277/2/3
f 279/3/3 256/3/3 273/3/3
f 279/3/3 273/3/3 272/3/3
f 280/3/3 256/3/3 279/3/3
f 284/2/3 276/2/3 275/2/3
f 284/2/3 275/2/3 274/2/3
f 284/2/3 274/2/3 261/2/3
f 285/2/3 276/2/3 284/2/3
f 286/2/3 276/2/3 285/2/3
f 291/2/3 284/2/3 261/2/3
f 293/2/3 288/2/3 287/2/3
f 293/2/3 287/2/3 286/2/3
f 294/2/3 288/2/3 293/2/3
f 295/2/3 288/2/3 294/2/3
f 296/3/3 272/3/3 254/3/3
f 296/3/3 279/3/3 272/3/3
f 297/3/3 279/3/3 296/3/3
f 298/5/3 290/5/3 289/5/3
f 299/5/3 290/5/3 298/5/3
f 300/6/3 261/6/3 260/6/3
f 301/2/3 294/2/3 293/2/3
f 301/6/3 261/6/3 300/6/3
f 301/2/3 292/2/3 291/2/3
f 301/2/3 291/2/3 261/2/3
f 301/2/3 293/2/3 292/2/3
f 302/2/3 294/2/3 301/2/3
f 303/4/3 297/4/3 296/4/3
f 303/3/3 296/3/3 254/3/3
f 304/4/3 297/4/3 303/4/3
f 305/3/3 304/3/3 303/3/3
f 305/3/3 303/3/3 254/3/3
f 306/3/3 304/3/3 305/3/3
f 307/3/3 304/3/3 306/3/3
f 309/8/3 283/8/3 282/8/3
f 309/8/3 282/8/3 281/8/3
f 310/8/3 283/8/3 309/8/3
f 311/8/3 308/8/3 307/8/3
f 311/8/3 307/8/3 306/8/3
f 312/8/3 308/8/3 311/8/3
f 315/2/3 314/2/3 313/2/3
f 316/2/3 314/2/3 315/2/3
f 319/2/3 318/2/3 317/2/3
f 320/2/3 318/2/3 319/2/3
f 323/3/3 322/3/3 321/3/3
f 324/3/3 322/3/3 323/3/3
f 325/6/3 324/6/3 323/6/3
f 326/6/3 324/6/3 325/6/3
f 329/2/3 326/2/3 325/2/3
f 330/2/3 326/2/3 329/2/3
f 331/7/3 328/7/3 327/7/3
f 332/7/3 331/7/3 327/7/3
f 333/7/3 331/7/3 332/7/3
f 337/3/3 335/3/3 334/3/3
f 338/3/3 337/3/3 336/3/3
f 339/3/3 335/3/3 337/3/3
f 339/3/3 337/3/3 338/3/3
f 342/3/3 335/3/3 339/3/3
f 343/3/3 335/3/3 342/3/3
f 344/7/3 341/7/3 340/7/3
f 345/7/3 344/7/3 340/7/3
f 346/7/3 344/7/3 345/7/3
f 349/2/3 348/2/3 347/2/3
f 350/2/3 348/2/3 349/2/3
f 351/6/3 350/6/3 349/6/3
f 352/6/3 350/6/3 351/6/3
f 353/3/3 352/3/3 351/3/3
f 354/3/3 352/3/3 353/3/3
f 357/2/3 356/2/3 355/2/3
f 358/2/3 356/2/3 357/2/3
f 359/3/4 360/3/4 361/3/4
f 361/3/4 360/3/4 362/3/4
f 361/6/4 362/6/4 363/6/4
f 363/6/4 362/6/4 364/6/4
f 363/2/4 364/2/4 368/2/4
f 368/2/4 364/2/4 369/2/4
f 366/7/4 367/7/4 370/7/4
f 365/5/4 366/5/4 371/5/4
f 366/7/4 370/7/4 372/7/4
f 371/5/4 366/5/4 372/5/4
f 372/7/4 370/7/4 373/7/4
f 374/3/4 375/3/4 377/3/4
f 376/3/4 377/3/4 378/3/4
f 377/3/4 375/3/4 379/3/4
f 378/3/4 377/3/4 379/3/4
f 379/3/4 375/3/4 383/3/4
f 383/3/4 375/3/4 384/3/4
f 381/7/4 382/7/4 385/7/4
f 380/5/4 381/5/4 386/5/4
f 381/7/4 385/7/4 387/7/4
f 386/5/4 381/5/4 387/5/4
f 387/7/4 385/7/4 388/7/4
f 389/2/4 390/2/4 391/2/4
f 391/2/4 390/2/4 392/2/4
f 391/6/4 392/6/4 393/6/4
f 393/6/4 392/6/4 394/6/4
f 393/3/4 394/3/4 395/3/4
f 395/3/4 394/3/4 396/3/4
f 397/2/4 398/2/4 399/2/4
f 399/2/4 398/2/4 400/2/4
f 401/2/4 402/2/4 403/2/4
f 403/2/4 402/2/4 404/2/4
f 405/8/4 406/8/4 408/8/4
f 408/8/4 406/8/4 409/8/4
f 407/3/4 408/3/4 414/3/4
f 414/3/4 408/3/4 415/3/4
f 412/2/4 413/2/4 416/2/4
f 416/2/4 413/2/4 417/2/4
f 409/8/4 410/8/4 418/8/4
f 412/2/4 416/2/4 420/2/4
f 418/8/4 419/8/4 422/8/4
f 409/8/4 418/8/4 422/8/4
f 422/8/4 419/8/4 423/8/4
f 411/6/4 412/6/4 424/6/4
f 420/2/4 421/2/4 425/2/4
f 424/6/4 412/6/4 425/6/4
f 412/2/4 420/2/4 425/2/4
f 425/2/4 421/2/4 426/2/4
f 427/3/4 428/3/4 429/3/4
f 429/3/4 428/3/4 430/3/4
f 423/8/4 419/8/4 432/8/4
f 432/8/4 419/8/4 433/8/4
f 430/8/4 431/8/4 434/8/4
f 434/8/4 431/8/4 435/8/4
f 436/2/4 437/2/4 438/2/4
f 438/2/4 437/2/4 439/2/4
f 436/2/4 438/2/4 440/2/4
f 439/2/4 437/2/4 441/2/4
f 436/2/4 440/2/4 442/2/4
f 440/2/4 441/2/4 442/2/4
f 441/2/4 437/2/4 443/2/4
f 442/2/4 441/2/4 443/2/4
f 444/8/4 445/8/4 447/8/4
f 447/8/4 445/8/4 448/8/4
f 449/2/4 450/2/4 451/2/4
f 451/2/4 450/2/4 452/2/4
f 446/8/4 447/8/4 455/8/4
f 455/8/4 447/8/4 456/8/4
f 453/8/4 454/8/4 457/8/4
f 456/8/4 457/8/4 458/8/4
f 457/8/4 454/8/4 459/8/4
f 458/8/4 457/8/4 459/8/4
f 460/8/4 461/8/4 462/8/4
f 462/8/4 461/8/4 463/8/4
f 468/5/5 465/5/5 464/5/5
f 469/5/5 465/5/5 468/5/5
f 470/5/5 467/5/5 466/5/5
f 471/5/5 467/5/5 470/5/5
f 474/6/5 473/6/5 472/6/5
f 475/6/5 473/6/5 474/6/5
f 476/6/5 474/6/5 472/6/5
f 477/2/5 475/2/5 474/2/5
f 477/6/5 474/6/5 476/6/5
f 478/2/5 475/2/5 477/2/5
f 479/2/5 475/2/5 478/2/5
f 480/6/5 473/6/5 475/6/5
f 480/2/5 475/2/5 479/2/5
f 481/6/5 473/6/5 480/6/5
f 484/2/5 479/2/5 478/2/5
f 485/2/5 479/2/5 484/2/5
f 488/6/5 483/6/5 482/6/5
f 488/2/5 484/2/5 483/2/5
f 488/2/5 486/2/5 485/2/5
f 488/2/5 485/2/5 484/2/5
f 489/6/5 487/6/5 486/6/5
f 489/2/5 486/2/5 488/2/5
f 490/6/5 488/6/5 482/6/5
f 490/6/5 489/6/5 488/6/5
f 491/6/5 487/6/5 489/6/5
f 491/6/5 489/6/5 490/6/5
f 496/6/5 493/6/5 492/6/5
f 497/6/5 493/6/5 496/6/5
f 498/6/5 495/6/5 494/6/5
f 499/6/5 495/6/5 498/6/5
f 502/2/5 501/2/5 500/2/5
f 503/2/5 501/2/5 502/2/5
f 512/3/5 505/3/5 504/3/5
f 513/6/5 506/6/5 505/6/5
f 513/3/5 505/3/5 512/3/5
f 514/2/5 507/2/5 506/2/5
f 514/6/5 506/6/5 513/6/5
f 515/2/5 507/2/5 514/2/5
f 516/2/5 509/2/5 508/2/5
f 517/6/5 510/6/5 509/6/5
f 517/2/5 509/2/5 516/2/5
f 518/3/5 511/3/5 510/3/5
f 518/6/5 510/6/5 517/6/5
f 519/3/5 511/3/5 518/3/5
f 522/2/5 521/2/5 520/2/5
f 523/2/5 521/2/5 522/2/5
f 526/2/5 525/2/5 524/2/5
f 527/2/5 525/2/5 526/2/5
f 530/3/5 529/3/5 528/3/5
f 531/3/5 529/3/5 530/3/5
f 532/3/5 530/3/5 528/3/5
f 533/3/5 529/3/5 531/3/5
f 534/3/5 532/3/5 528/3/5
f 534/3/5 533/3/5 532/3/5
f 535/3/5 533/3/5 534/3/5
f 536/3/5 529/3/5 533/3/5
f 536/3/5 533/3/5 535/3/5
f 537/3/5 529/3/5 536/3/5
f 538/8/5 536/8/5 535/8/5
f 539/8/5 536/8/5 538/8/5
f 544/8/5 541/8/5 540/8/5
f 545/8/5 541/8/5 544/8/5
f 546/8/5 543/8/5 542/8/5
f 547/8/5 543/8/5 546/8/5
f 548/3/5 545/3/5 544/3/5
f 549/3/5 545/3/5 548/3/5
f 550/3/5 547/3/5 546/3/5
f 551/3/5 547/3/5 550/3/5
f 552/8/5 549/8/5 548/8/5
f 553/8/5 549/8/5 552/8/5
f 556/8/5 551/8/5 550/8/5
f 557/8/5 551/8/5 556/8/5
f 558/8/5 554/8/5 553/8/5
f 559/8/5 554/8/5 558/8/5
f 560/8/5 556/8/5 555/8/5
f 561/8/5 556/8/5 560/8/5
f 562/8/5 560/8/5 559/8/5
f 563/8/5 560/8/5 562/8/5
f 566/8/5 565/8/5 564/8/5
f 567/8/5 565/8/5 566/8/5
f 568/8/5 565/8/5 567/8/5
f 569/8/5 565/8/5 568/8/5
f 574/8/5 571/8/5 570/8/5
f 575/8/5 571/8/5 574/8/5
f 576/8/5 573/8/5 572/8/5
f 577/8/5 573/8/5 576/8/5
f 578/5/6 579/5/6 582/5/6
f 582/5/6 579/5/6 583/5/6
f 580/5/6 581/5/6 584/5/6
f 584/5/6 581/5/6 585/5/6
f 586/2/6 587/2/6 590/2/6
f 590/2/6 587/2/6 591/2/6
f 588/2/6 589/2/6 592/2/6
f 592/2/6 589/2/6 593/2/6
f 594/2/6 595/2/6 598/2/6
f 598/2/6 595/2/6 599/2/6
f 596/2/6 597/2/6 602/2/6
f 602/2/6 597/2/6 603/2/6
f 600/2/6 601/2/6 604/2/6
f 604/2/6 601/2/6 605/2/6
f 596/2/6 602/2/6 609/2/6
f 598/2/6 599/2/6 610/2/6
f 610/2/6 599/2/6 611/2/6
f 605/2/6 601/2/6 612/2/6
f 606/3/6 607/3/6 616/3/6
f 607/6/6 608/6/6 617/6/6
f 616/3/6 607/3/6 617/3/6
f 608/2/6 609/2/6 618/2/6
f 617/6/6 608/6/6 618/6/6
f 609/2/6 602/2/6 619/2/6
f 618/2/6 609/2/6 619/2/6
f 605/2/6 612/2/6 622/2/6
f 612/2/6 613/2/6 622/2/6
f 613/6/6 614/6/6 623/6/6
f 622/2/6 613/2/6 623/2/6
f 614/3/6 615/3/6 624/3/6
f 623/6/6 614/6/6 624/6/6
f 624/3/6 615/3/6 625/3/6
f 619/2/6 602/2/6 626/2/6
f 620/2/6 621/2/6 628/2/6
f 628/2/6 621/2/6 629/2/6
f 605/2/6 622/2/6 631/2/6
f 626/2/6 627/2/6 632/2/6
f 619/2/6 626/2/6 632/2/6
f 632/2/6 627/2/6 633/2/6
f 630/2/6 631/2/6 634/2/6
f 631/2/6 622/2/6 635/2/6
f 634/2/6 631/2/6 635/2/6
f 636/2/6 637/2/6 638/2/6
f 638/2/6 637/2/6 639/2/6
f 640/2/6 641/2/6 645/2/6
f 642/2/6 643/2/6 646/2/6
f 644/2/6 645/2/6 648/2/6
f 645/2/6 641/2/6 648/2/6
f 648/2/6 641/2/6 649/2/6
f 646/2/6 647/2/6 650/2/6
f 642/2/6 646/2/6 650/2/6
f 650/2/6 647/2/6 651/2/6
f 644/2/6 648/2/6 652/2/6
f 651/2/6 647/2/6 655/2/6
f 652/2/6 653/2/6 656/2/6
f 644/2/6 652/2/6 656/2/6
f 656/2/6 653/2/6 657/2/6
f 657/2/6 653/2/6 658/2/6
f 654/2/6 655/2/6 659/2/6
f 655/2/6 647/2/6 660/2/6
f 659/2/6 655/2/6 660/2/6
f 660/2/6 647/2/6 661/2/6
f 657/2/6 658/2/6 662/2/6
f 658/2/6 659/2/6 662/2/6
f 659/2/6 660/2/6 662/2/6
f 662/2/6 660/2/6 663/2/6
f 664/8/6 665/8/6 668/8/6
f 668/8/6 665/8/6 669/8/6
f 666/8/6 667/8/6 670/8/6
f 670/8/6 667/8/6 671/8/6
f 669/8/6 665/8/6 673/8/6
f 673/8/6 665/8/6 674/8/6
f 671/8/6 672/8/6 675/8/6
f 675/8/6 672/8/6 676/8/6
f 676/8/6 672/8/6 677/8/6
f 677/8/6 678/8/6 679/8/6
f 676/8/6 677/8/6 679/8/6
f 679/8/6 678/8/6 680/8/6
f 681/8/6 682/8/6 683/8/6
f 681/8/6 683/8/6 684/8/6
f 684/8/6 683/8/6 685/8/6
f 686/8/6 687/8/6 688/8/6
f 688/8/6 687/8/6 689/8/6
f 690/8/6 691/8/6 692/8/6
f 692/8/6 691/8/6 693/8/6
